<?xml version="1.0" encoding="utf-8"?>
<svg version="1.1" x="0px" y="0px" viewBox="0 0 100 101" fill="white" style="enable-background:new 0 0 100 100;" xmlns="http://www.w3.org/2000/svg">
  <g>
    <g>
      <path d="M5273.1,2400.1v-2c0-2.8-5-4-9.7-4s-9.7,1.3-9.7,4v2c0,1.8,0.7,3.6,2,4.9l5,4.9c0.3,0.3,0.4,0.6,0.4,1v6.4     c0,0.4,0.2,0.7,0.6,0.8l2.9,0.9c0.5,0.1,1-0.2,1-0.8v-7.2c0-0.4,0.2-0.7,0.4-1l5.1-5C5272.4,2403.7,5273.1,2401.9,5273.1,2400.1z      M5263.4,2400c-4.8,0-7.4-1.3-7.5-1.8v0c0.1-0.5,2.7-1.8,7.5-1.8c4.8,0,7.3,1.3,7.5,1.8C5270.7,2398.7,5268.2,2400,5263.4,2400z"/>
      <path d="M5268.4,2410.3c-0.6,0-1,0.4-1,1c0,0.6,0.4,1,1,1h4.3c0.6,0,1-0.4,1-1c0-0.6-0.4-1-1-1H5268.4z"/>
      <path d="M5272.7,2413.7h-4.3c-0.6,0-1,0.4-1,1c0,0.6,0.4,1,1,1h4.3c0.6,0,1-0.4,1-1C5273.7,2414.1,5273.3,2413.7,5272.7,2413.7z"/>
      <path d="M5272.7,2417h-4.3c-0.6,0-1,0.4-1,1c0,0.6,0.4,1,1,1h4.3c0.6,0,1-0.4,1-1C5273.7,2417.5,5273.3,2417,5272.7,2417z"/>
    </g>
    <g>
      <path d="M24.2,39.6c0-7.4,6-13.4,13.4-13.4c5.8,0,10.8,3.8,12.6,9l16.3-16.3l-7.8-7.8c-0.9-0.9-2.4-0.9-3.3,0l-3.8,3.8     c-2-1.1-4.1-2-6.4-2.6V6.9c0-1.4-1.1-2.4-2.4-2.4H32.4c-1.4,0-2.4,1-2.4,2.4v5.4c-2.3,0.6-4.4,1.5-6.4,2.6l-3.8-3.8     c-0.9-0.9-2.4-0.9-3.3,0l-7.3,7.3c-0.9,0.9-0.9,2.4,0,3.3l3.8,3.8c-1.1,2-2,4.1-2.6,6.4H4.9c-1.4,0-2.4,1.1-2.4,2.4v10.3     c0,1.4,1,2.4,2.4,2.4h5.4c0.6,2.3,1.5,4.4,2.6,6.4l-3.8,3.8c-1,0.9-0.9,2.4,0,3.3l7.8,7.8l16.3-16.3     C27.9,50.4,24.2,45.4,24.2,39.6z"/>
      <rect x="33.1" y="45.2" transform="matrix(0.7071 -0.7071 0.7071 0.7071 -22.5927 57.6817)" width="50.4" height="21.7"/>
      <path d="M96.5,28.7L85.8,17.9c-1.3-1.3-3.3-1.3-4.6,0l-7,7l15.4,15.4l7-7C97.8,32,97.8,29.9,96.5,28.7z"/>
      <path d="M23.1,76c-0.4,0.4-0.7,1-0.9,1.6L19,91.5c-0.5,2.3,1.6,4.4,3.9,3.9l13.9-3.2c0.6-0.1,1.1-0.4,1.6-0.9l4-4L27.1,72     L23.1,76z"/>
    </g>
  </g>
</svg>