<svg width="48" height="49" viewBox="0 0 48 49" fill="none" xmlns="http://www.w3.org/2000/svg">
<g id="Icon">
<path id="Combined Shape" fill-rule="evenodd" clip-rule="evenodd" d="M47.4968 29.8575C47.1918 29.7363 46.8435 29.8121 46.6168 30.0494L43.2001 33.6408V12.3091H43.2041L46.4641 8.78922C46.764 8.46513 46.7443 7.95867 46.4198 7.65875L46.4191 7.65802L45.2457 6.566L46.8761 4.80604C47.1757 4.48158 47.1555 3.97549 46.8311 3.67594L43.311 0.41601C42.9869 0.116091 42.4808 0.135499 42.1809 0.459954L36.4929 6.60153H8.80005C8.79749 4.39333 7.00818 2.60407 4.79993 2.6015H4.00012C1.79187 2.60407 0.00256348 4.39333 0 6.60153V41.0007C0 41.4423 0.358154 41.8005 0.800171 41.8005H12.9104L11.2302 43.8179C10.9479 44.1577 10.994 44.662 11.3335 44.9443L15.0223 48.0157C15.3618 48.2984 15.8665 48.2522 16.1492 47.9128L16.1495 47.9124L20.2441 42.9932C20.5269 42.6526 20.7089 42.2392 20.7689 41.8005H35.428L30.62 46.8493C30.3157 47.1694 30.3285 47.6758 30.6486 47.9801C30.7972 48.1215 30.9946 48.2006 31.2001 48.2002H47.1998C47.6418 48.2002 48 47.8421 48 47.4004V30.6009C48 30.2735 47.8008 29.9791 47.4968 29.8575ZM44.7466 8.28129L43.2001 9.9541V8.7775L44.1599 7.73748L44.7466 8.28129ZM41.6001 8.15019V8.13884H41.6096L42.9847 6.65426L40.6351 4.48048L32.4847 13.2884L34.8344 15.4621L41.6001 8.15019ZM33.2977 16.2187L31.4575 16.7556L31.8505 14.8788L33.2977 16.2187ZM45.1575 4.30471L42.809 2.13203L41.7217 3.30644L44.0706 5.48131L45.1575 4.30471ZM4.00012 4.20144H4.79993C6.12561 4.20144 7.20007 5.27588 7.20007 6.60153V37.0216C6.5116 36.492 5.66821 36.2035 4.79993 36.2005H4.00012C3.13147 36.2035 2.28845 36.492 1.59998 37.0216V6.60153C1.59998 5.27588 2.67444 4.20144 4.00012 4.20144ZM4.79993 37.8005H4.00012C2.67444 37.8005 1.59998 38.8753 1.59998 40.2006H7.20007C7.20007 38.8753 6.12561 37.8005 4.79993 37.8005ZM19.0151 41.97L18.5032 42.5845L16.0441 40.5375L16.5553 39.9222C16.838 39.5828 17.3423 39.5366 17.6818 39.8193L17.6821 39.8195L17.6825 39.8197L18.9119 40.8407C19.2517 41.123 19.2982 41.6273 19.0159 41.9671L19.0151 41.9678V41.97ZM12.9727 44.2269L15.4321 46.274L17.4792 43.8142L15.0201 41.7668L12.9727 44.2269ZM20.4327 40.2006C20.2998 39.979 20.1317 39.7809 19.9351 39.6135L18.7057 38.5904C17.6869 37.7422 16.1737 37.8803 15.3256 38.8991L14.2401 40.2006H8.80005V8.20146H35.0127L30.7672 12.7892C30.7064 12.8577 30.6581 12.9368 30.6248 13.0221C30.6152 13.0452 30.6079 13.0668 30.5999 13.091L30.598 13.0966L30.595 13.1047L30.5896 13.1187C30.5838 13.1336 30.5778 13.1488 30.5742 13.1646L29.6191 17.7308C29.5291 18.1633 29.8066 18.5869 30.2391 18.677C30.3677 18.7038 30.5006 18.6986 30.6262 18.662L35.1064 17.3565C35.1176 17.353 35.1278 17.3479 35.1379 17.3429C35.1467 17.3385 35.1555 17.3341 35.1647 17.3309C35.1848 17.3236 35.2057 17.3133 35.2273 17.3027C35.317 17.262 35.3983 17.2045 35.4672 17.1339L41.6001 10.506V35.3205L36.9521 40.2006H20.4327ZM33.0663 46.6003H46.4V32.6008L33.0663 46.6003ZM38.4001 45.0004C38.0764 45.0004 37.7845 44.8055 37.6608 44.5067C37.537 44.2079 37.6055 43.8637 37.8344 43.6348L43.4344 38.0352C43.5842 37.8851 43.7878 37.8008 43.9999 37.8008C44.4415 37.8008 44.8 38.1586 44.8 38.6006V44.2006C44.8 44.6422 44.4419 45.0004 43.9999 45.0004H38.4001ZM43.2001 43.4004V40.5316L40.3312 43.4004H43.2001ZM29.6001 30.6009H35.1998C35.6418 30.6009 36 30.9591 36 31.4007C36 31.8427 35.6418 32.2009 35.2002 32.2009H12.8002C12.3582 32.2009 12 31.8427 12 31.4007C12 30.9591 12.3582 30.6009 12.8002 30.6009H18.3999V21.8011C18.4006 21.5891 18.4845 21.3855 18.6335 21.2346L23.4335 16.4348C23.7458 16.1224 24.2523 16.1224 24.5647 16.4348L29.3646 21.2346C29.5144 21.3851 29.599 21.5887 29.6001 21.8011V30.6009ZM26.8689 21.001L24 18.1321L21.1311 21.001H26.8689ZM28.0001 22.6009V30.6009H19.9999V22.6009H28.0001ZM23.1998 13.0013H24.8002V14.6012H23.1998V13.0013ZM24.8002 35.4007V33.8008H23.1998V35.4007H24.8002Z" fill="black"/>
</g>
</svg>
